<svg width="69" height="69" viewBox="0 0 69 69" fill="none" xmlns="http://www.w3.org/2000/svg">
<rect x="0.263672" y="0.263672" width="67.9062" height="67.9062" rx="8.43717" fill="#583FBC" fill-opacity="0.1" stroke="url(#paint0_linear_496_436)" stroke-width="0.527323"/>
<rect x="8.75146" y="8.31519" width="50.9297" height="50.9297" rx="8.43717" fill="white"/>
<path d="M38.1725 38.3181L41.1148 40.0567L40.3432 41.3119L36.6293 39.0897V33.9457H38.1725V38.3181ZM44.8597 38.0609C44.8597 42.0423 41.6395 45.2625 37.6581 45.2625C35.6931 45.2625 33.9235 44.4806 32.6273 43.2049H27.3701C26.2281 43.2049 25.3125 42.2892 25.3125 41.1473V24.6865C25.3125 23.5548 26.2281 22.6289 27.3701 22.6289H28.3989V29.8305L30.9709 28.2873L33.5429 29.8305V22.6289H39.7157C40.8473 22.6289 41.7733 23.5445 41.7733 24.6865V32.1556C43.6354 33.4621 44.8597 35.6123 44.8597 38.0609ZM42.8021 38.0609C42.8021 35.2214 40.4976 32.9169 37.6581 32.9169C34.8186 32.9169 32.5141 35.2214 32.5141 38.0609C32.5141 40.9004 34.8186 43.2049 37.6581 43.2049C40.4976 43.2049 42.8021 40.9004 42.8021 38.0609Z" fill="#583FBC"/>
<defs>
<linearGradient id="paint0_linear_496_436" x1="0.263672" y1="0.263672" x2="68.1699" y2="68.1699" gradientUnits="userSpaceOnUse">
<stop stop-color="white"/>
<stop offset="1" stop-color="white" stop-opacity="0"/>
</linearGradient>
</defs>
</svg>
